<svg xmlns="http://www.w3.org/2000/svg" viewBox="0 0 500 500"><g id="freepik--Floor--inject-245"><path id="freepik--floor--inject-245" d="M77.66,458.87c-95.17-45.19-95.17-118.46,0-163.65s249.5-45.19,344.68,0,95.17,118.46,0,163.65S172.84,504.06,77.66,458.87Z" style="fill:#f5f5f5"></path></g><g id="freepik--Windows--inject-245"><g id="freepik--Window--inject-245"><g id="freepik--window--inject-245"><g id="freepik--Frame--inject-245"><polygon points="28.19 279.06 30.9 280.67 120.25 229.08 117.55 227.47 28.19 279.06" style="fill:#fafafa"></polygon><polygon points="117.55 227.47 30.9 277.49 30.9 82.34 117.55 32.34 117.55 227.47" style="fill:#fff"></polygon><path d="M125.36,21.9,25.79,79.39V289.52L125.36,232Zm-5.11,207.18L30.9,280.67V82.34l89.35-51.59Z" style="fill:#f0f0f0"></path><polygon points="120.25 229.08 117.55 227.47 117.55 32.34 120.25 30.75 120.25 229.08" style="fill:#e0e0e0"></polygon><polygon points="30.9 214.15 30.9 217.32 120.25 165.74 117.55 164.12 30.9 214.15" style="fill:#fafafa"></polygon><polygon points="30.9 136.63 30.9 139.81 120.25 88.22 117.55 86.6 30.9 136.63" style="fill:#fafafa"></polygon><polygon points="125.36 21.9 122.61 20.33 23.04 77.82 25.79 79.39 125.36 21.9" style="fill:#fafafa"></polygon><polygon points="23.04 77.82 25.79 79.39 25.79 289.52 23.04 287.94 23.04 77.82" style="fill:#e0e0e0"></polygon><polygon points="70.28 59.6 73.03 58.01 73.03 256.36 70.28 254.78 70.28 59.6" style="fill:#e0e0e0"></polygon></g><polygon points="78.14 55.08 73.03 58.01 73.03 256.36 78.14 253.4 78.14 55.08" style="fill:#f0f0f0"></polygon><polygon points="125.36 85.27 125.36 91.16 25.79 148.65 25.79 142.76 125.36 85.27" style="fill:#f0f0f0"></polygon><polygon points="125.36 162.77 125.36 168.66 25.79 226.15 25.79 220.26 125.36 162.77" style="fill:#f0f0f0"></polygon><polygon points="73.03 115.48 70.28 113.89 30.9 136.63 30.9 139.81 73.03 115.48" style="fill:#fafafa"></polygon><polygon points="73.03 192.97 70.28 191.38 30.9 214.12 30.9 217.29 73.03 192.97" style="fill:#fafafa"></polygon></g></g></g><g id="freepik--Pictures--inject-245"><g id="freepik--Picture--inject-245"><g id="freepik--frame--inject-245"><polygon points="464.12 89.23 462.25 90.34 423.74 68.11 425.62 67 464.12 89.23" style="fill:#fafafa"></polygon><polygon points="425.62 67 462.25 88.14 462.25 49.78 425.62 28.65 425.62 67" style="fill:#fff"></polygon><path d="M420.2,70.16l45.59,26.32V47.74L420.2,21.42Zm3.54-42.61,38.5,22.23V90.34L423.74,68.11Z" style="fill:#f0f0f0"></path><polygon points="423.74 68.11 425.62 67 425.62 28.65 423.74 27.55 423.74 68.11" style="fill:#e0e0e0"></polygon><polygon points="420.2 21.42 422.11 20.33 467.69 46.65 465.79 47.74 420.2 21.42" style="fill:#fafafa"></polygon><polygon points="467.69 46.65 465.79 47.74 465.79 96.48 467.69 95.39 467.69 46.65" style="fill:#e0e0e0"></polygon></g><g id="freepik--Land--inject-245"><polygon points="427.05 65.85 460.81 85.34 460.81 75.6 452.37 56.1 447.11 60.98 449 69.15 437.35 44.21 427.05 56.1 427.05 65.85" style="fill:#f0f0f0"></polygon><path d="M447.43,46.69a5.51,5.51,0,0,1,2.5,4.32c0,1.6-1.12,2.24-2.5,1.45a5.54,5.54,0,0,1-2.5-4.33C444.93,46.54,446.05,45.89,447.43,46.69Z" style="fill:#f0f0f0"></path></g></g><g id="freepik--picture--inject-245"><g id="freepik--frame--inject-245"><polygon points="464.12 156.58 462.25 157.7 423.74 135.47 425.62 134.35 464.12 156.58" style="fill:#fafafa"></polygon><polygon points="425.62 134.35 462.25 155.49 462.25 117.14 425.62 96.01 425.62 134.35" style="fill:#fff"></polygon><path d="M420.2,137.51l45.59,26.32V115.09L420.2,88.77Zm3.54-42.6,38.5,22.23V157.7l-38.51-22.23Z" style="fill:#f0f0f0"></path><polygon points="423.74 135.47 425.62 134.35 425.62 96.01 423.74 94.91 423.74 135.47" style="fill:#e0e0e0"></polygon><polygon points="420.2 88.77 422.11 87.68 467.69 114 465.79 115.09 420.2 88.77" style="fill:#fafafa"></polygon><polygon points="467.69 114 465.79 115.09 465.79 163.83 467.69 162.74 467.69 114" style="fill:#e0e0e0"></polygon></g><g id="freepik--land--inject-245"><polygon points="427.05 133.2 460.81 152.7 460.81 142.95 452.37 123.45 447.11 128.33 449 136.5 437.35 111.56 427.05 123.45 427.05 133.2" style="fill:#f0f0f0"></polygon><path d="M447.43,114a5.52,5.52,0,0,1,2.5,4.33c0,1.59-1.12,2.24-2.5,1.44a5.52,5.52,0,0,1-2.5-4.33C444.93,113.89,446.05,113.25,447.43,114Z" style="fill:#f0f0f0"></path></g></g><g id="freepik--picture--inject-245"><g id="freepik--frame--inject-245"><polygon points="140.46 89.23 142.33 90.34 180.84 68.11 178.96 67 140.46 89.23" style="fill:#fafafa"></polygon><polygon points="178.96 67 142.33 88.14 142.33 49.78 178.96 28.65 178.96 67" style="fill:#fff"></polygon><path d="M184.38,21.42,138.79,47.74V96.48l45.59-26.32Zm-3.54,46.69L142.33,90.34V49.78l38.51-22.23Z" style="fill:#f0f0f0"></path><polygon points="180.84 68.11 178.96 67 178.96 28.65 180.84 27.55 180.84 68.11" style="fill:#e0e0e0"></polygon><polygon points="184.38 21.42 182.47 20.33 136.89 46.65 138.79 47.74 184.38 21.42" style="fill:#fafafa"></polygon><polygon points="136.89 46.65 138.79 47.74 138.79 96.48 136.89 95.39 136.89 46.65" style="fill:#e0e0e0"></polygon></g><g id="freepik--land--inject-245"><polygon points="177.53 65.85 143.76 85.34 143.76 75.6 152.21 56.1 157.46 60.98 155.57 69.15 167.23 44.21 177.53 56.1 177.53 65.85" style="fill:#f0f0f0"></polygon><path d="M157.15,46.69a5.51,5.51,0,0,0-2.5,4.32c0,1.6,1.12,2.24,2.5,1.45a5.53,5.53,0,0,0,2.49-4.33C159.64,46.54,158.53,45.89,157.15,46.69Z" style="fill:#f0f0f0"></path></g></g><g id="freepik--picture--inject-245"><g id="freepik--frame--inject-245"><polygon points="140.46 156.58 142.33 157.7 180.84 135.47 178.96 134.35 140.46 156.58" style="fill:#fafafa"></polygon><polygon points="178.96 134.35 142.33 155.49 142.33 117.14 178.96 96.01 178.96 134.35" style="fill:#fff"></polygon><path d="M184.38,88.77l-45.59,26.32v48.74l45.59-26.32Zm-3.54,46.7L142.33,157.7V117.14l38.51-22.23Z" style="fill:#f0f0f0"></path><polygon points="180.84 135.47 178.96 134.35 178.96 96.01 180.84 94.91 180.84 135.47" style="fill:#e0e0e0"></polygon><polygon points="184.38 88.77 182.47 87.68 136.89 114 138.79 115.09 184.38 88.77" style="fill:#fafafa"></polygon><polygon points="136.89 114 138.79 115.09 138.79 163.83 136.89 162.74 136.89 114" style="fill:#e0e0e0"></polygon></g><g id="freepik--land--inject-245"><polygon points="177.53 133.2 143.76 152.7 143.76 142.95 152.21 123.45 157.46 128.33 155.57 136.5 167.23 111.56 177.53 123.45 177.53 133.2" style="fill:#f0f0f0"></polygon><path d="M157.15,114a5.52,5.52,0,0,0-2.5,4.33c0,1.59,1.12,2.24,2.5,1.44a5.51,5.51,0,0,0,2.49-4.33C159.64,113.89,158.53,113.25,157.15,114Z" style="fill:#f0f0f0"></path></g></g></g><g id="freepik--Shadows--inject-245"><ellipse id="freepik--Shadow--inject-245" cx="63.25" cy="428.17" rx="32.07" ry="18.52" style="fill:#e0e0e0"></ellipse><ellipse id="freepik--shadow--inject-245" cx="300.4" cy="409.66" rx="70.31" ry="40.6" style="fill:#e0e0e0"></ellipse><path id="freepik--shadow--inject-245" d="M425.29,437.15l54.26-31.27c1.26-.73,1.26-1.91,0-2.65L367.63,338.42a5.07,5.07,0,0,0-4.57,0L308.8,369.68c-1.26.73-1.26,1.91,0,2.65l111.93,64.81A5,5,0,0,0,425.29,437.15Z" style="fill:#e0e0e0"></path><path id="freepik--shadow--inject-245" d="M110.05,461.63a5.87,5.87,0,0,1-5.26,0L75.16,444.5c-1.45-.84-1.45-2.2,0-3l141.56-81.74a5.8,5.8,0,0,1,5.26,0l29.63,17.12c1.45.84,1.46,2.21,0,3.06Z" style="fill:#e0e0e0"></path></g><g id="freepik--Furniture--inject-245"><g id="freepik--Drawer--inject-245"><g id="freepik--drawer--inject-245"><polygon points="413.82 406.9 418.48 430.02 423.01 432.63 427.5 430.04 432.19 406.9 423 401.6 413.82 406.9" style="fill:#e0e0e0"></polygon><polygon points="413.82 406.9 418.48 430.02 423.01 432.63 427.5 430.04 432.19 406.9 423 401.6 413.82 406.9" style="opacity:0.05"></polygon><polygon points="423.01 432.63 423 412.21 413.82 406.9 418.48 430.02 423.01 432.63" style="fill:#ebebeb"></polygon><polygon points="413.82 406.9 416.83 421.83 423.01 425.4 429.16 421.85 432.19 406.9 423 401.6 413.82 406.9" style="opacity:0.05"></polygon><polygon points="454.22 383.57 458.88 406.69 463.41 409.31 467.9 406.71 472.6 383.57 463.41 378.27 454.22 383.57" style="fill:#e0e0e0"></polygon><polygon points="454.22 383.57 458.88 406.69 463.41 409.31 467.9 406.71 472.6 383.57 463.41 378.27 454.22 383.57" style="opacity:0.05"></polygon><polygon points="463.41 409.31 463.41 388.88 454.22 383.57 458.88 406.69 463.41 409.31" style="fill:#ebebeb"></polygon><polygon points="454.22 383.57 457.23 398.5 463.41 402.07 469.57 398.52 472.6 383.57 463.41 378.27 454.22 383.57" style="opacity:0.05"></polygon><polygon points="314.75 349.78 319.41 372.89 323.94 375.51 328.43 372.92 333.13 349.78 323.94 344.47 314.75 349.78" style="fill:#e0e0e0"></polygon><polygon points="314.75 349.78 319.41 372.89 323.94 375.51 328.43 372.92 333.13 349.78 323.94 344.47 314.75 349.78" style="opacity:0.05"></polygon><polygon points="323.94 375.51 323.94 355.08 314.75 349.78 319.41 372.89 323.94 375.51" style="fill:#ebebeb"></polygon><polygon points="314.75 349.78 317.76 364.7 323.94 368.27 330.09 364.72 333.13 349.78 323.94 344.47 314.75 349.78" style="opacity:0.05"></polygon><g id="freepik--Cabinet--inject-245"><g id="freepik--cabinet--inject-245"><polygon points="423.01 421.67 473.08 392.76 473.08 284.38 423.01 313.29 423.01 421.67" style="fill:#e0e0e0"></polygon><polygon points="423.01 313.29 312.14 249.36 312.14 357.74 423.01 421.67 423.01 313.29" style="fill:#ebebeb"></polygon><polygon points="312.14 249.36 423.01 313.29 473.08 284.38 362.22 220.44 312.14 249.36" style="fill:#f5f5f5"></polygon><polygon points="415.85 366.98 319.3 311.31 319.3 351.08 317.98 351.84 414.54 407.51 415.86 406.75 415.85 366.98" style="fill:#e0e0e0"></polygon><polygon points="414.54 367.74 317.98 312.06 317.98 351.84 414.54 407.51 414.54 367.74" style="fill:#f5f5f5"></polygon><path d="M371.79,352.21l-9.74-5.62c-1.26-.73-2.28-.4-2.28.75a4.57,4.57,0,0,0,2.28,3.38l9.74,5.62c1.26.73,2.28.4,2.28-.74A4.59,4.59,0,0,0,371.79,352.21Z" style="fill:#e0e0e0"></path><polygon points="415.86 318.95 319.3 263.28 319.3 303.05 317.98 303.81 414.54 359.49 415.86 358.73 415.86 318.95" style="fill:#e0e0e0"></polygon><polygon points="414.54 319.71 317.98 264.04 317.98 303.81 414.54 359.49 414.54 319.71" style="fill:#f5f5f5"></polygon><path d="M371.79,304.18l-9.73-5.61c-1.27-.73-2.29-.4-2.29.74a4.57,4.57,0,0,0,2.29,3.39l9.73,5.61c1.26.73,2.29.4,2.29-.74A4.63,4.63,0,0,0,371.79,304.18Z" style="fill:#e0e0e0"></path></g></g></g><g id="freepik--picture--inject-245"><g id="freepik--frame--inject-245"><path d="M378.44,257.58l41.21,23.8,17.5-10.11-41.21-23.79Z" style="opacity:0.05"></path><polygon points="419.45 273.04 417.76 273.85 386.54 255.82 388.23 255.01 419.45 273.04" style="fill:#fafafa"></polygon><polygon points="388.23 255.01 417.93 272.15 422.25 227.72 392.54 210.59 388.23 255.01" style="fill:#fff"></polygon><path d="M383.36,257.3l37,21.34,5.1-52.4-37-21.34ZM391,209.7l31.23,18-4.49,46.13-31.22-18Z" style="fill:#f0f0f0"></path><polygon points="386.54 255.82 388.23 255.01 392.54 210.59 391.02 209.7 386.54 255.82" style="fill:#e0e0e0"></polygon><polygon points="388.46 204.9 390.17 204.11 427.13 225.45 425.43 226.24 388.46 204.9" style="fill:#fafafa"></polygon><polygon points="427.13 225.45 425.43 226.24 420.33 278.64 422.04 277.85 427.13 225.45" style="fill:#e0e0e0"></polygon></g><g id="freepik--land--inject-245"><polygon points="389.53 254.16 416.92 269.97 417.64 262.49 412.55 240.5 407.69 248 408.7 254.32 400.6 231 390.26 246.68 389.53 254.16" style="fill:#f0f0f0"></polygon><path d="M413,231.24a3.86,3.86,0,0,1,1.81,3.39c-.12,1.22-1.12,1.69-2.24,1a3.84,3.84,0,0,1-1.81-3.38C410.85,231.06,411.85,230.6,413,231.24Z" style="fill:#f0f0f0"></path></g></g><g id="freepik--Pot--inject-245"><path id="freepik--shadow--inject-245" d="M438.27,278.51c-4.82,2.79-4.82,7.3,0,10.09s12.65,2.78,17.48,0,4.82-7.3,0-10.09S443.1,275.72,438.27,278.51Z" style="opacity:0.05"></path><path d="M454.86,285.54c4.21-4.29,6.68-15,2.58-18.4H436.58c-4.09,3.4-1.63,14.1,2.57,18.39l.12.12.14.14c.12.12.25.23.38.34l.1.08.32.24c.18.13.36.24.54.35a13.87,13.87,0,0,0,12.52,0h0l.55-.35.29-.23.13-.09.36-.33.17-.16Z" style="fill:#f5f5f5"></path><path d="M438.39,265.51c-4.75,2.75-4.75,7.2,0,9.95s12.48,2.75,17.23,0,4.76-7.2,0-9.95S443.15,262.77,438.39,265.51Z" style="fill:#fff"></path><path d="M441.77,267.46c-2.9,1.67-2.9,4.38,0,6.05a11.59,11.59,0,0,0,10.48,0c2.9-1.67,2.9-4.38,0-6.05A11.59,11.59,0,0,0,441.77,267.46Z" style="fill:#ebebeb"></path><path d="M452.25,270.33a11.59,11.59,0,0,0-10.48,0,4.85,4.85,0,0,0-1.74,1.59,4.77,4.77,0,0,0,1.74,1.59,11.59,11.59,0,0,0,10.48,0,4.77,4.77,0,0,0,1.74-1.59A4.85,4.85,0,0,0,452.25,270.33Z" style="fill:#e0e0e0"></path><path d="M442.41,271.92a23.63,23.63,0,0,1-3.79-5c-1.76-3.09-2.08-7.24-1.17-7.75s4.59,3.62,4.59,3.62a22,22,0,0,1-.39-5.28c.15-2.76.83-5.27,1.61-5.77s2.56,3,3.32,5.49,1.21,4.6,1.21,4.6a39.45,39.45,0,0,1,1.36-5.81c.92-2.61,1.75-3.2,2.4-2.95s1.07,1.48,1.26,5a34.63,34.63,0,0,1-.16,5s1.3-1.43,2.74-2.82c1.59-1.52,2.27-1.73,2.72-1.44s.58,2.66-1.88,7.1a24.67,24.67,0,0,1-4.63,6.09S448.21,274.11,442.41,271.92Z" style="fill:#ebebeb"></path></g></g></g><g id="freepik--Outlets--inject-245"><g id="freepik--Oulet--inject-245"><polygon points="433.46 169.47 449.7 178.85 449.7 214.13 433.46 204.75 433.46 169.47" style="fill:#4FBAAF"></polygon><polygon points="433.46 169.47 449.7 178.85 449.7 214.13 433.46 204.75 433.46 169.47" style="fill:#fff;opacity:0.4"></polygon><polygon points="449.7 214.13 451.34 213.19 451.34 177.91 449.7 178.85 449.7 214.13" style="fill:#4FBAAF"></polygon><polygon points="451.34 177.91 435.09 168.53 433.46 169.47 449.7 178.85 451.34 177.91" style="fill:#4FBAAF"></polygon><polygon points="451.34 177.91 435.09 168.53 433.46 169.47 449.7 178.85 451.34 177.91" style="fill:#fff;opacity:0.6000000000000001"></polygon><path d="M442.79,200.42l1.16.66v-3.87l-1.16-.67Zm2.13-20.17-6.68-3.86c-.73-.42-1.32,0-1.32,1v8.16a3.16,3.16,0,0,0,1.32,2.52l6.68,3.85c.73.42,1.32,0,1.32-1v-8.16A3.16,3.16,0,0,0,444.92,180.25Zm.93,10.46c0,.68-.42,1-.93.7l-6.68-3.86a2.24,2.24,0,0,1-.93-1.78v-8.16c0-.68.42-1,.93-.7l6.68,3.86a2.22,2.22,0,0,1,.93,1.77Zm-4.27,10.9c-.41-.24-.75,0-.75.57a1.77,1.77,0,0,0,.75,1.42c.41.24.75,0,.75-.56A1.81,1.81,0,0,0,441.58,201.61Zm-2.37-2.93,1.16.67v-4.48l-1.16-.67Zm2.37-12.35c-.41-.24-.75,0-.75.56a1.81,1.81,0,0,0,.75,1.43c.41.24.75,0,.75-.57A1.79,1.79,0,0,0,441.58,186.33Zm3.34,9.2-6.68-3.85c-.73-.42-1.32,0-1.32,1v8.17a3.15,3.15,0,0,0,1.32,2.51l6.68,3.86c.73.42,1.32,0,1.32-1v-8.16A3.16,3.16,0,0,0,444.92,195.53Zm.93,10.46c0,.68-.42,1-.93.7l-6.68-3.85a2.26,2.26,0,0,1-.93-1.78V192.9c0-.69.42-1,.93-.71l6.68,3.86a2.24,2.24,0,0,1,.93,1.78Zm-3.06-20.86,1.16.67v-3.88l-1.16-.67Zm-3.58-1.73,1.16.66v-4.48l-1.16-.66Z" style="fill:#4FBAAF"></path><path d="M442.79,200.42l1.16.66v-3.87l-1.16-.67Zm2.13-20.17-6.68-3.86c-.73-.42-1.32,0-1.32,1v8.16a3.16,3.16,0,0,0,1.32,2.52l6.68,3.85c.73.42,1.32,0,1.32-1v-8.16A3.16,3.16,0,0,0,444.92,180.25Zm.93,10.46c0,.68-.42,1-.93.7l-6.68-3.86a2.24,2.24,0,0,1-.93-1.78v-8.16c0-.68.42-1,.93-.7l6.68,3.86a2.22,2.22,0,0,1,.93,1.77Zm-4.27,10.9c-.41-.24-.75,0-.75.57a1.77,1.77,0,0,0,.75,1.42c.41.24.75,0,.75-.56A1.81,1.81,0,0,0,441.58,201.61Zm-2.37-2.93,1.16.67v-4.48l-1.16-.67Zm2.37-12.35c-.41-.24-.75,0-.75.56a1.81,1.81,0,0,0,.75,1.43c.41.24.75,0,.75-.57A1.79,1.79,0,0,0,441.58,186.33Zm3.34,9.2-6.68-3.85c-.73-.42-1.32,0-1.32,1v8.17a3.15,3.15,0,0,0,1.32,2.51l6.68,3.86c.73.42,1.32,0,1.32-1v-8.16A3.16,3.16,0,0,0,444.92,195.53Zm.93,10.46c0,.68-.42,1-.93.7l-6.68-3.85a2.26,2.26,0,0,1-.93-1.78V192.9c0-.69.42-1,.93-.71l6.68,3.86a2.24,2.24,0,0,1,.93,1.78Zm-3.06-20.86,1.16.67v-3.88l-1.16-.67Zm-3.58-1.73,1.16.66v-4.48l-1.16-.66Z" style="opacity:0.2"></path></g></g><g id="freepik--Plants--inject-245"><g id="freepik--Plant--inject-245"><g id="freepik--plant--inject-245"><g id="freepik--pot--inject-245"><path d="M47.43,429.49C39,420.76,34,398.08,42.26,391.15h42c8.25,6.93,3.28,29.6-5.17,38.33l-.23.24-.3.29c-.24.24-.49.46-.76.69l-.2.16-.64.49a10.13,10.13,0,0,1-1.1.7c-7,4.07-18.24,4.07-25.2,0h0a10.24,10.24,0,0,1-1.1-.71l-.6-.45-.25-.2c-.26-.22-.5-.44-.73-.66s-.23-.22-.34-.34Z" style="fill:#37474f"></path><path d="M80.6,388.37c9.58,5.59,9.58,14.66,0,20.25s-25.12,5.6-34.7,0-9.58-14.66,0-20.25S71,382.77,80.6,388.37Z" style="fill:#455a64"></path><path d="M76,391.06c7,4.1,7,10.76,0,14.87s-18.44,4.11-25.48,0-7-10.77,0-14.87S69,387,76,391.06Z" style="fill:#263238"></path><path d="M50.51,398.12c7-4.11,18.45-4.11,25.48,0a11.75,11.75,0,0,1,4.22,3.9A11.68,11.68,0,0,1,76,405.93c-7,4.11-18.44,4.11-25.48,0A11.72,11.72,0,0,1,46.3,402,11.79,11.79,0,0,1,50.51,398.12Z" style="fill:#fafafa"></path></g><path d="M60.43,342.12c-3.22,3.48-12.16,4.44-15.87-5-3.47-8.83-7.22-17.21-8.29-20.45a3.34,3.34,0,0,1,2.14-4.32s.25-4.85,8.48-1.56,14,8.28,17.62,16.36S65.93,341,60.43,342.12Z" style="fill:#4FBAAF"></path><path d="M60.43,342.12c-3.22,3.48-12.16,4.44-15.87-5-3.47-8.83-7.22-17.21-8.29-20.45a3.34,3.34,0,0,1,2.14-4.32s.25-4.85,8.48-1.56,14,8.28,17.62,16.36S65.93,341,60.43,342.12Z" style="fill:#fff;opacity:0.45"></path><path d="M64,354.57a45.39,45.39,0,0,0-.72-4.91,67.92,67.92,0,0,0-2.72-9.48A70,70,0,0,0,51,322.58a60.53,60.53,0,0,0-7.49-8.5c-.09-.08-.15.11-.09.17a74.85,74.85,0,0,1,11.73,16.22A75.37,75.37,0,0,1,62,348.85c.4,1.79.79,3.59,1.12,5.4s.52,3.69.83,5.52c0,.19.32.3.33.05A34.18,34.18,0,0,0,64,354.57Z" style="fill:#4FBAAF"></path><path d="M64,354.57a45.39,45.39,0,0,0-.72-4.91,67.92,67.92,0,0,0-2.72-9.48A70,70,0,0,0,51,322.58a60.53,60.53,0,0,0-7.49-8.5c-.09-.08-.15.11-.09.17a74.85,74.85,0,0,1,11.73,16.22A75.37,75.37,0,0,1,62,348.85c.4,1.79.79,3.59,1.12,5.4s.52,3.69.83,5.52c0,.19.32.3.33.05A34.18,34.18,0,0,0,64,354.57Z" style="opacity:0.30000000000000004"></path><path d="M66.74,339.67c-7.39,2.29-12.88-3.48-11-12.52s11.4-19.09,15-16.39c2.24-2.24,7.18-1.44,9.5,5.91S80.46,342.88,66.74,339.67Z" style="fill:#4FBAAF"></path><path d="M66.74,339.67c-7.39,2.29-12.88-3.48-11-12.52s11.4-19.09,15-16.39c2.24-2.24,7.18-1.44,9.5,5.91S80.46,342.88,66.74,339.67Z" style="fill:#fff;opacity:0.25"></path><path d="M71.07,316.26a98.79,98.79,0,0,0-4.91,16.25,158.19,158.19,0,0,0-2.85,17,263.4,263.4,0,0,0-1.48,33.35q0,4.61.12,9.23c.06,3.16,0,6.37.28,9.52.1,1.21,1.82.89,1.85-.22.1-5.54-.2-11.1-.26-16.64s0-11,.11-16.44a230.74,230.74,0,0,1,3-33.3c.53-3.07,1.11-6.13,1.82-9.16.76-3.18,1.68-6.32,2.52-9.49C71.29,316.26,71.14,316.09,71.07,316.26Z" style="fill:#4FBAAF"></path><path d="M71.07,316.26a98.79,98.79,0,0,0-4.91,16.25,158.19,158.19,0,0,0-2.85,17,263.4,263.4,0,0,0-1.48,33.35q0,4.61.12,9.23c.06,3.16,0,6.37.28,9.52.1,1.21,1.82.89,1.85-.22.1-5.54-.2-11.1-.26-16.64s0-11,.11-16.44a230.74,230.74,0,0,1,3-33.3c.53-3.07,1.11-6.13,1.82-9.16.76-3.18,1.68-6.32,2.52-9.49C71.29,316.26,71.14,316.09,71.07,316.26Z" style="opacity:0.30000000000000004"></path><path d="M54.71,366.2c-3.23,3.65-10.62,3.33-15.59-3.19s-7.94-31-.95-29.48c1.47-3.28,20.77,4.58,23.24,20.59C63.21,365.75,54.71,366.2,54.71,366.2Z" style="fill:#4FBAAF"></path><path d="M54.71,366.2c-3.23,3.65-10.62,3.33-15.59-3.19s-7.94-31-.95-29.48c1.47-3.28,20.77,4.58,23.24,20.59C63.21,365.75,54.71,366.2,54.71,366.2Z" style="fill:#fff;opacity:0.25"></path><path d="M60.48,377.79a34.32,34.32,0,0,0-.95-4.48q-1.22-4.5-2.87-8.87A93.56,93.56,0,0,0,48,347.52a84.24,84.24,0,0,0-6.12-8.64c-.06-.08-.12.09-.08.14,1.72,2.52,3.47,5,5,7.63s3,5.54,4.37,8.41a116.75,116.75,0,0,1,6.37,17.07c.47,1.66.86,3.34,1.35,5s1.15,3.4,1.58,5.14c.06.26.39.35.35,0C60.73,380.79,60.68,379.28,60.48,377.79Z" style="fill:#4FBAAF"></path><path d="M60.48,377.79a34.32,34.32,0,0,0-.95-4.48q-1.22-4.5-2.87-8.87A93.56,93.56,0,0,0,48,347.52a84.24,84.24,0,0,0-6.12-8.64c-.06-.08-.12.09-.08.14,1.72,2.52,3.47,5,5,7.63s3,5.54,4.37,8.41a116.75,116.75,0,0,1,6.37,17.07c.47,1.66.86,3.34,1.35,5s1.15,3.4,1.58,5.14c.06.26.39.35.35,0C60.73,380.79,60.68,379.28,60.48,377.79Z" style="opacity:0.30000000000000004"></path><path d="M66.53,362.57c-4.23-1-4.44-6,.84-12.26S86,341.38,86.58,344c3,0,3,9.26-3.59,17.76S66.92,368.29,66.53,362.57Z" style="fill:#4FBAAF"></path><path d="M66.53,362.57c-4.23-1-4.44-6,.84-12.26S86,341.38,86.58,344c3,0,3,9.26-3.59,17.76S66.92,368.29,66.53,362.57Z" style="fill:#fff;opacity:0.25"></path><path d="M74.8,353.52a34.63,34.63,0,0,0-7.31,6.94,34.19,34.19,0,0,0-4.91,8.84c-.14.36.48.89.63.5a39,39,0,0,1,11.61-16.19S74.85,353.48,74.8,353.52Z" style="fill:#4FBAAF"></path><path d="M74.8,353.52a34.63,34.63,0,0,0-7.31,6.94,34.19,34.19,0,0,0-4.91,8.84c-.14.36.48.89.63.5a39,39,0,0,1,11.61-16.19S74.85,353.48,74.8,353.52Z" style="opacity:0.30000000000000004"></path><path d="M71.35,393.47c-5.85,2.37-3.34,9.34,2.37,14.63a26.18,26.18,0,0,0,17.8,6.41c3.93-.28,4.93-.82,4.93-.82s.63-6,0-9.68a18.7,18.7,0,0,0-13.78-14.85C73.54,386.69,71.35,390,71.35,393.47Z" style="fill:#4FBAAF"></path><path d="M71.35,393.47c-5.85,2.37-3.34,9.34,2.37,14.63a26.18,26.18,0,0,0,17.8,6.41c3.93-.28,4.93-.82,4.93-.82s.63-6,0-9.68a18.7,18.7,0,0,0-13.78-14.85C73.54,386.69,71.35,390,71.35,393.47Z" style="fill:#fff;opacity:0.45"></path><path d="M87.55,403.76a47.59,47.59,0,0,0-9-8.29c-3.33-2.19-7.77-4.06-11.77-2.69-1.55.53-3.95,2.07-3.66,4,0,.19.37.67.59.4a15.94,15.94,0,0,1,2.11-2.45A6.18,6.18,0,0,1,69,393.52a14.47,14.47,0,0,1,8.2,1.86c4,2.1,7.15,5.35,10.3,8.47C87.53,403.89,87.57,403.79,87.55,403.76Z" style="fill:#4FBAAF"></path><path d="M87.55,403.76a47.59,47.59,0,0,0-9-8.29c-3.33-2.19-7.77-4.06-11.77-2.69-1.55.53-3.95,2.07-3.66,4,0,.19.37.67.59.4a15.94,15.94,0,0,1,2.11-2.45A6.18,6.18,0,0,1,69,393.52a14.47,14.47,0,0,1,8.2,1.86c4,2.1,7.15,5.35,10.3,8.47C87.53,403.89,87.57,403.79,87.55,403.76Z" style="opacity:0.30000000000000004"></path><path d="M49.08,363.52c.55-2.67-3.29-9-15.29-10.27s-21,3.87-22.79,6.19-2.72,4.77-.55,5.38,9.67,1.34,14.59,3.6,14.92,9,21.75,7S52.47,366.16,49.08,363.52Z" style="fill:#4FBAAF"></path><path d="M49.08,363.52c.55-2.67-3.29-9-15.29-10.27s-21,3.87-22.79,6.19-2.72,4.77-.55,5.38,9.67,1.34,14.59,3.6,14.92,9,21.75,7S52.47,366.16,49.08,363.52Z" style="fill:#fff;opacity:0.45"></path><path d="M58.2,372.8c-5.06-10.44-18.1-13.63-28.76-13.58a42.37,42.37,0,0,0-10.39,1.35s-.05.13,0,.13a54.94,54.94,0,0,1,17.36-.18c5.65.92,11.21,2.68,15.86,6.12A21.44,21.44,0,0,1,58,373C58.1,373.25,58.3,373,58.2,372.8Z" style="fill:#4FBAAF"></path><path d="M58.2,372.8c-5.06-10.44-18.1-13.63-28.76-13.58a42.37,42.37,0,0,0-10.39,1.35s-.05.13,0,.13a54.94,54.94,0,0,1,17.36-.18c5.65.92,11.21,2.68,15.86,6.12A21.44,21.44,0,0,1,58,373C58.1,373.25,58.3,373,58.2,372.8Z" style="opacity:0.30000000000000004"></path><path d="M77,349.52c-.15,4.2,5.75,6.63,11.46,3s11.7-7.16,17-8.53,7.8-5.69,6.13-7.78-4.33-7.36-18.25-5.64-18.85,8-20.76,12.42S74.93,350.73,77,349.52Z" style="fill:#4FBAAF"></path><path d="M77,349.52c-.15,4.2,5.75,6.63,11.46,3s11.7-7.16,17-8.53,7.8-5.69,6.13-7.78-4.33-7.36-18.25-5.64-18.85,8-20.76,12.42S74.93,350.73,77,349.52Z" style="fill:#fff;opacity:0.45"></path><path d="M99.67,336.21a15.12,15.12,0,0,0-6,.62,30.22,30.22,0,0,0-5.11,1.83,28.41,28.41,0,0,0-8.7,6.3,23.25,23.25,0,0,0-2,2.37,10.18,10.18,0,0,0-1.49,2.43c-.1.28.31.73.55.45.69-.8,1.21-1.77,1.85-2.6A28.83,28.83,0,0,1,81.08,345a28.47,28.47,0,0,1,5.37-4.22,32.28,32.28,0,0,1,5.94-2.89,32.71,32.71,0,0,1,3.46-1,11.9,11.9,0,0,1,3.79-.53C99.7,336.37,99.74,336.22,99.67,336.21Z" style="fill:#4FBAAF"></path><path d="M99.67,336.21a15.12,15.12,0,0,0-6,.62,30.22,30.22,0,0,0-5.11,1.83,28.41,28.41,0,0,0-8.7,6.3,23.25,23.25,0,0,0-2,2.37,10.18,10.18,0,0,0-1.49,2.43c-.1.28.31.73.55.45.69-.8,1.21-1.77,1.85-2.6A28.83,28.83,0,0,1,81.08,345a28.47,28.47,0,0,1,5.37-4.22,32.28,32.28,0,0,1,5.94-2.89,32.71,32.71,0,0,1,3.46-1,11.9,11.9,0,0,1,3.79-.53C99.7,336.37,99.74,336.22,99.67,336.21Z" style="opacity:0.30000000000000004"></path><path d="M67,372.16c-2-2-7.24-1.5-9.75,4.27S60,388.5,60.63,390.27c2.41-1.4,4.29-.56,8.55-1.4a10.62,10.62,0,0,0,8.16-10.6C77.06,373,74.83,369.51,67,372.16Z" style="fill:#4FBAAF"></path><path d="M67,372.16c-2-2-7.24-1.5-9.75,4.27S60,388.5,60.63,390.27c2.41-1.4,4.29-.56,8.55-1.4a10.62,10.62,0,0,0,8.16-10.6C77.06,373,74.83,369.51,67,372.16Z" style="fill:#fff;opacity:0.45"></path><path d="M67,371.58a7.88,7.88,0,0,0-2.58,2.68,14.58,14.58,0,0,0-1.68,3.23,13.6,13.6,0,0,0-.73,7.33c0,.1.09,0,.09-.05a15,15,0,0,1,1.23-7.25,14.37,14.37,0,0,1,1.76-2.91,13.75,13.75,0,0,1,1.17-1.36,7.41,7.41,0,0,0,1.12-1.12C67.48,371.91,67.26,371.44,67,371.58Z" style="fill:#4FBAAF"></path><path d="M67,371.58a7.88,7.88,0,0,0-2.58,2.68,14.58,14.58,0,0,0-1.68,3.23,13.6,13.6,0,0,0-.73,7.33c0,.1.09,0,.09-.05a15,15,0,0,1,1.23-7.25,14.37,14.37,0,0,1,1.76-2.91,13.75,13.75,0,0,1,1.17-1.36,7.41,7.41,0,0,0,1.12-1.12C67.48,371.91,67.26,371.44,67,371.58Z" style="opacity:0.30000000000000004"></path><path d="M57.86,383.84c-.18-4.29-4.83-7.69-11.45-9.65a18,18,0,0,0-18.59,4.94c-4.83,5.25-7.33,9.72-5.36,11s10.72,4.47,16.45,6.25,13.22,2.33,19-1.07S63.22,386,57.86,383.84Z" style="fill:#4FBAAF"></path><path d="M57.86,383.84c-.18-4.29-4.83-7.69-11.45-9.65a18,18,0,0,0-18.59,4.94c-4.83,5.25-7.33,9.72-5.36,11s10.72,4.47,16.45,6.25,13.22,2.33,19-1.07S63.22,386,57.86,383.84Z" style="fill:#fff;opacity:0.25"></path><path d="M58.22,383.36A18,18,0,0,0,51,381.44a33.33,33.33,0,0,0-7.2.08,45.21,45.21,0,0,0-7.46,1.58c-1.27.38-2.53.79-3.78,1.25a25.45,25.45,0,0,0-3.46,1.43s-.07.16,0,.15c1.21-.26,2.39-.73,3.58-1.09s2.56-.77,3.85-1.11a49.6,49.6,0,0,1,7.35-1.39,32.65,32.65,0,0,1,7.46,0A44.86,44.86,0,0,1,58.16,384C58.62,384.15,58.48,383.51,58.22,383.36Z" style="fill:#4FBAAF"></path><path d="M58.22,383.36A18,18,0,0,0,51,381.44a33.33,33.33,0,0,0-7.2.08,45.21,45.21,0,0,0-7.46,1.58c-1.27.38-2.53.79-3.78,1.25a25.45,25.45,0,0,0-3.46,1.43s-.07.16,0,.15c1.21-.26,2.39-.73,3.58-1.09s2.56-.77,3.85-1.11a49.6,49.6,0,0,1,7.35-1.39,32.65,32.65,0,0,1,7.46,0A44.86,44.86,0,0,1,58.16,384C58.62,384.15,58.48,383.51,58.22,383.36Z" style="opacity:0.30000000000000004"></path><path d="M71.5,377.45c-4.72-3.75-3.15-12.76,13.4-13.25s28.36,3.84,27.84,9.16c2.66,2.66,1.31,10.12-12.08,12.45S68.09,387,71.5,377.45Z" style="fill:#4FBAAF"></path><path d="M71.5,377.45c-4.72-3.75-3.15-12.76,13.4-13.25s28.36,3.84,27.84,9.16c2.66,2.66,1.31,10.12-12.08,12.45S68.09,387,71.5,377.45Z" style="fill:#fff;opacity:0.25"></path><path d="M105,373.42a71.06,71.06,0,0,0-14.79-.86,56.88,56.88,0,0,0-13.64,1.57,19.55,19.55,0,0,0-3.33,1.23,15.53,15.53,0,0,0-1.45.78c-.38.23-.8.43-.93.87a.44.44,0,0,0,.49.52,18,18,0,0,0,2.89-1.43,22.38,22.38,0,0,1,2.87-1.05,36.09,36.09,0,0,1,5.75-1.13,103.43,103.43,0,0,1,14-.77c2.72,0,5.43.24,8.14.46C105,373.62,105,373.43,105,373.42Z" style="fill:#4FBAAF"></path><path d="M105,373.42a71.06,71.06,0,0,0-14.79-.86,56.88,56.88,0,0,0-13.64,1.57,19.55,19.55,0,0,0-3.33,1.23,15.53,15.53,0,0,0-1.45.78c-.38.23-.8.43-.93.87a.44.44,0,0,0,.49.52,18,18,0,0,0,2.89-1.43,22.38,22.38,0,0,1,2.87-1.05,36.09,36.09,0,0,1,5.75-1.13,103.43,103.43,0,0,1,14-.77c2.72,0,5.43.24,8.14.46C105,373.62,105,373.43,105,373.42Z" style="opacity:0.30000000000000004"></path></g></g></g><g id="freepik--Device--inject-245"><g id="freepik--Mobile--inject-245"><path d="M237.6,366.41V70.08c0-7.51-3.73-9.58-7-11.49s-8.77-3.08-13.48-.36L96.53,127.83C91.82,130.55,88,137.16,88,142.6V438.93c0,5.43,3.41,8.64,6.73,10.55s9.09,4,13.8,1.3l120.55-69.6A16.06,16.06,0,0,0,237.6,366.41Z" style="fill:#37474f"></path><path d="M229.93,369.17,106,440.74l0-297.59-15.51-9a17.44,17.44,0,0,0-2.5,8.4V438.93c0,5.43,3.41,8.64,6.73,10.55s9.09,4,13.8,1.3l120.55-69.6a16.26,16.26,0,0,0,7.38-8.24l-.48-.28Z" style="fill:#263238"></path><path d="M228.85,67.56,108,137.36a13.25,13.25,0,0,0-6,10.36v294c0,5.84,4.15,8.23,9.2,5.31L228.85,379a15.06,15.06,0,0,0,6.78-11.75V71.47C235.63,67.16,232.58,65.4,228.85,67.56Z" style="fill:#455a64"></path><path d="M229.73,85.31V360.38a14.27,14.27,0,0,1-6.43,11.17l-109,62.92c-3.56,2.07-6.44.41-6.44-3.71V153.7a14.36,14.36,0,0,1,4.52-9.7c.2-.19.4-.38.61-.56a10.08,10.08,0,0,1,1.31-.89L145,124.85l2-1.15c1.1-.64,2-.13,2,1.15s.95,1.76,2.14,1.07l35.72-20.62a4.61,4.61,0,0,0,2.14-3.54,4.51,4.51,0,0,1,1.79-3.34l.21-.13,30-17.31.64-.37C226.07,78,229.73,80.13,229.73,85.31Z"></path><path d="M220.94,81,191,98.29l-.21.13a4.51,4.51,0,0,0-1.79,3.34,4.61,4.61,0,0,1-2.14,3.54L151.1,125.92c-1.19.69-2.14.2-2.14-1.07s-.9-1.79-2-1.15l-2,1.15-30.65,17.7a10.08,10.08,0,0,0-1.31.89c-.21.18-.41.37-.61.56a14.36,14.36,0,0,0-4.52,9.7V430.76a7.52,7.52,0,0,0,.14,1.48,7.51,7.51,0,0,0,1.48-.65l109-62.93a14.27,14.27,0,0,0,6.43-11.16V82.43a8.2,8.2,0,0,0-.47-2.86,8.12,8.12,0,0,0-2.86,1Z" style="fill:#4FBAAF"></path><path d="M220.94,81,191,98.29l-.21.13a4.51,4.51,0,0,0-1.79,3.34,4.61,4.61,0,0,1-2.14,3.54L151.1,125.92c-1.19.69-2.14.2-2.14-1.07s-.9-1.79-2-1.15l-2,1.15-30.65,17.7a10.08,10.08,0,0,0-1.31.89c-.21.18-.41.37-.61.56a14.36,14.36,0,0,0-4.52,9.7V430.76a7.52,7.52,0,0,0,.14,1.48,7.51,7.51,0,0,0,1.48-.65l109-62.93a14.27,14.27,0,0,0,6.43-11.16V82.43a8.2,8.2,0,0,0-.47-2.86,8.12,8.12,0,0,0-2.86,1Z" style="fill:#fff;opacity:0.75"></path><path d="M156.52,115l16.38-9.46c1-.56,1.77-.16,1.77.9a3.81,3.81,0,0,1-1.77,2.93l-16.38,9.46c-1,.56-1.77.16-1.77-.9A3.78,3.78,0,0,1,156.52,115Z" style="fill:#263238"></path><path d="M181.3,99.94c1.1-.63,2-.12,2,1.15a4.39,4.39,0,0,1-2,3.45c-1.1.64-2,.13-2-1.15A4.41,4.41,0,0,1,181.3,99.94Z" style="fill:#263238"></path><path d="M99.19,193.24a7.19,7.19,0,0,0-3.15-5.7,2.07,2.07,0,0,0-2.16-.18c-.4.24-1.95,1.1-2.37,1.35a2.47,2.47,0,0,0-1,2.24v23.79a7.18,7.18,0,0,0,3.15,5.69,2.12,2.12,0,0,0,2.08.23c.44-.23,2-1.15,2.44-1.4a2.45,2.45,0,0,0,1-2.24Z" style="fill:#455a64"></path><path d="M96.84,194.59v23.79c0,2.14-1.41,3.06-3.15,2.05a7.18,7.18,0,0,1-3.15-5.69V191c0-2.14,1.41-3.06,3.15-2.06A7.2,7.2,0,0,1,96.84,194.59Z" style="fill:#37474f"></path><path d="M99.19,234.87a7.22,7.22,0,0,0-3.15-5.7,2.12,2.12,0,0,0-2.16-.18c-.4.24-1.95,1.11-2.37,1.36a2.44,2.44,0,0,0-1,2.23v23.79a7.22,7.22,0,0,0,3.15,5.7,2.14,2.14,0,0,0,2.08.22c.44-.23,2-1.15,2.44-1.39a2.48,2.48,0,0,0,1-2.24Z" style="fill:#455a64"></path><path d="M96.84,236.22V260c0,2.14-1.41,3.06-3.15,2.06a7.22,7.22,0,0,1-3.15-5.7V232.58c0-2.14,1.41-3.06,3.15-2.06A7.22,7.22,0,0,1,96.84,236.22Z" style="fill:#37474f"></path></g></g><g id="freepik--Battery--inject-245"><g id="freepik--low-battery--inject-245"><g id="freepik--battery--inject-245"><path d="M199.06,162.13V291.67c0,3.62-2.21,7.82-4.91,9.38L144.3,329.83c-2.71,1.57-4.91-.09-4.91-3.71V196.58c0-3.62,2.2-7.82,4.91-9.39l49.85-28.78C196.85,156.85,199.06,158.51,199.06,162.13Z" style="fill:#fff"></path><path d="M195.51,151c-1.47-.85-3.38-.77-5.47.43l-7.64,4.42v-3.42a2.06,2.06,0,0,0-.78-1.85c-.41-.24-3.6-2-4.05-2.34a1.45,1.45,0,0,0-1.57.08l-21.76,12.57a5.5,5.5,0,0,0-2.3,4.39v8.16l-11.75,6.77c-4.61,2.67-8.37,9.84-8.37,16V325.75c0,3.38,1.13,5.75,2.91,6.77l4.09,2.36c1.47.85,3.39.78,5.48-.43l49.85-28.78c4.61-2.66,8.37-9.83,8.37-16V160.13c0-3.38-1.13-5.75-2.91-6.77ZM195,289.3c0,3.62-2.21,7.82-4.91,9.38l-49.85,28.78a3.52,3.52,0,0,1-.62.3,6.86,6.86,0,0,1-.18-1.64V196.58c0-3.62,2.2-7.82,4.91-9.39l49.85-28.78c.21-.12.42-.21.62-.3a7,7,0,0,1,.18,1.65Z" style="fill:#37474f"></path><path d="M156.86,164.82a5.78,5.78,0,0,0-.82,2.82v8.15l-4.11-2.37v-8.15a5.8,5.8,0,0,1,.83-2.82Z" style="fill:#263238"></path><path d="M194.15,153.79l-11.75,6.78v-8.15c0-1.69-1-2.47-2.3-1.74l-21.76,12.57a5.5,5.5,0,0,0-2.3,4.39v8.16l-11.74,6.77c-4.62,2.67-8.38,9.84-8.38,16V328.12c0,6.17,3.76,9,8.38,6.33l49.85-28.78c4.61-2.66,8.37-9.83,8.37-16V160.13C202.52,154,198.76,151.13,194.15,153.79Zm4.91,137.88c0,3.62-2.21,7.82-4.91,9.38L144.3,329.83c-2.71,1.57-4.91-.09-4.91-3.71V196.58c0-3.62,2.2-7.82,4.91-9.39l49.85-28.78c2.7-1.56,4.91.1,4.91,3.72Z" style="fill:#455a64"></path><path d="M194.77,158.11a7.49,7.49,0,0,1,.18,1.64V289.3a12.42,12.42,0,0,1-2,6.38l4.11,2.37a12.42,12.42,0,0,0,2-6.38V162.12C199.06,158.79,197.18,157.12,194.77,158.11Z" style="fill:#263238"></path><path d="M192.56,284.55l-55.07,31.8v7.46A1.33,1.33,0,0,0,138,325c.27.16,4,2.3,4.3,2.48a1,1,0,0,0,1-.08l52.05-30.05a3.64,3.64,0,0,0,1.51-2.89V287Z" style="fill:#4FBAAF"></path><path d="M141.78,318.82v7.47c0,1.11.68,1.62,1.51,1.14l52.05-30.05a3.64,3.64,0,0,0,1.51-2.89V287Z" style="fill:#4FBAAF"></path><polygon points="137.49 316.35 141.78 318.82 196.85 287.03 192.56 284.55 137.49 316.35" style="fill:#fff;opacity:0.4"></polygon><path d="M141.78,326.29v-7.47l-4.28-2.47v7.46A1.31,1.31,0,0,0,138,325c.24.15,3.52,2,4.2,2.43A1.43,1.43,0,0,1,141.78,326.29Z" style="opacity:0.2"></path><path d="M194.15,153.79l-11.75,6.78v-8.15c0-1.69-1-2.47-2.3-1.74l-21.76,12.57a5.5,5.5,0,0,0-2.3,4.39v8.16l-11.74,6.77c-4.62,2.67-8.38,9.84-8.38,16V328.12c0,6.17,3.76,9,8.38,6.33l49.85-28.78c4.61-2.66,8.37-9.83,8.37-16V160.13C202.52,154,198.76,151.13,194.15,153.79Zm4.91,137.88c0,3.62-2.21,7.82-4.91,9.38L144.3,329.83c-2.71,1.57-4.91-.09-4.91-3.71V196.58c0-3.62,2.2-7.82,4.91-9.39l49.85-28.78c2.7-1.56,4.91.1,4.91,3.72Z" style="fill:#455a64"></path></g></g></g><g id="freepik--Texts--inject-245"><path d="M136.76,369.52l-3.5,2v-7.77a.25.25,0,0,0-.09-.22.18.18,0,0,0-.2,0l-.86.5a.53.53,0,0,0-.21.23.76.76,0,0,0-.08.32v9.16a.29.29,0,0,0,.08.22.18.18,0,0,0,.21,0l4.65-2.68a.63.63,0,0,0,.21-.24.71.71,0,0,0,.08-.31v-1a.28.28,0,0,0-.08-.22A.2.2,0,0,0,136.76,369.52Zm7.19-8.6a4.89,4.89,0,0,0-.23-1.37,1.9,1.9,0,0,0-.59-.88,1.36,1.36,0,0,0-.95-.27,3.07,3.07,0,0,0-1.35.48,5.67,5.67,0,0,0-1.36,1.09,6.34,6.34,0,0,0-1,1.38,6.58,6.58,0,0,0-.58,1.55,8.42,8.42,0,0,0-.23,1.63c0,.19,0,.38,0,.6v1.35c0,.22,0,.41,0,.59a4.88,4.88,0,0,0,.23,1.36,1.8,1.8,0,0,0,.58.89,1.42,1.42,0,0,0,1,.26,3.27,3.27,0,0,0,1.36-.49,5.73,5.73,0,0,0,1.35-1.08,6.05,6.05,0,0,0,1-1.37,6.58,6.58,0,0,0,.58-1.55,8.42,8.42,0,0,0,.23-1.63c0-.19,0-.39,0-.61v-1.34C144,361.29,144,361.1,144,360.92Zm-1.43,3.3a4.22,4.22,0,0,1-.5,1.86,3.23,3.23,0,0,1-1.19,1.24,1.16,1.16,0,0,1-1.2.14,1.53,1.53,0,0,1-.49-1.29c0-.35,0-.75,0-1.19s0-.84,0-1.21a4,4,0,0,1,.49-1.86,3.08,3.08,0,0,1,1.2-1.25,1.12,1.12,0,0,1,1.19-.14,1.58,1.58,0,0,1,.5,1.3c0,.35,0,.75,0,1.19S142.53,363.85,142.52,364.22Zm9.8-11.83-.79.45a.75.75,0,0,0-.2.2,1,1,0,0,0-.12.38l-.9,6.52-.78-3.33a.68.68,0,0,0-.11-.2c0-.07-.14-.07-.27,0l-.87.5a.58.58,0,0,0-.27.31,2.07,2.07,0,0,0-.1.31l-.79,4.25-.89-5.5a.28.28,0,0,0-.13-.23.25.25,0,0,0-.2,0l-.79.45a.58.58,0,0,0-.2.23.66.66,0,0,0-.08.32.49.49,0,0,0,0,.11l1.36,8.16a.43.43,0,0,0,.12.27c.06.06.14.06.25,0l.86-.49a.6.6,0,0,0,.24-.28,2.08,2.08,0,0,0,.13-.42l.92-4.77.91,3.71a.67.67,0,0,0,.13.27q.09.09.24,0l.87-.5a.56.56,0,0,0,.24-.28,1.1,1.1,0,0,0,.13-.41l1.36-9.74a.54.54,0,0,0,0-.11.27.27,0,0,0-.09-.23A.17.17,0,0,0,152.32,352.39Zm9-.47a3.38,3.38,0,0,0,.19-.33,3.76,3.76,0,0,0,.25-.53,4.73,4.73,0,0,0,.21-.69,4.12,4.12,0,0,0,.08-.81,3,3,0,0,0-.12-.84,1.54,1.54,0,0,0-.4-.68,1.09,1.09,0,0,0-.73-.27,2.27,2.27,0,0,0-1.14.38L156.52,350a.65.65,0,0,0-.2.23.68.68,0,0,0-.09.32v9.16a.25.25,0,0,0,.09.22.18.18,0,0,0,.2,0l3.38-1.95a3.82,3.82,0,0,0,1-.84,6.13,6.13,0,0,0,.72-1.1,6.25,6.25,0,0,0,.43-1.21,4.93,4.93,0,0,0,.15-1.16,2.07,2.07,0,0,0-.28-1.22A1.18,1.18,0,0,0,161.32,351.92Zm-3.65-.85,1.88-1.08c.37-.22.64-.28.81-.19s.26.31.26.66a1.88,1.88,0,0,1-.26,1,2.18,2.18,0,0,1-.81.74l-1.88,1.09Zm2.82,4.42a2.19,2.19,0,0,1-.85.83l-2,1.13V355l2-1.14c.37-.21.65-.26.84-.14s.28.35.28.71A2.11,2.11,0,0,1,160.49,355.49Zm27.22-15.38-3.52,2v-2.35l3.2-1.85a.46.46,0,0,0,.2-.23.65.65,0,0,0,.09-.32v-1a.24.24,0,0,0-.09-.22.15.15,0,0,0-.2,0l-3.2,1.85v-2.26l3.43-2a.59.59,0,0,0,.21-.23.79.79,0,0,0,.08-.32v-1a.29.29,0,0,0-.08-.22.18.18,0,0,0-.21,0L183,334.65a.58.58,0,0,0-.2.23.68.68,0,0,0-.09.32v9.16a.25.25,0,0,0,.09.22.18.18,0,0,0,.2,0l4.67-2.7a.51.51,0,0,0,.2-.23.65.65,0,0,0,.09-.32v-1a.24.24,0,0,0-.09-.22A.15.15,0,0,0,187.71,340.11Zm5.94-5.63a5.21,5.21,0,0,0,1-1.69,5.42,5.42,0,0,0,.36-2c0-1-.23-1.6-.69-1.88s-1.14-.17-2,.34l-2.75,1.59a.54.54,0,0,0-.2.22.68.68,0,0,0-.09.32v9.16a.24.24,0,0,0,.09.22c.06,0,.12,0,.2,0l.86-.5a.53.53,0,0,0,.21-.23.76.76,0,0,0,.08-.32v-3.3l1.42-.82,1.39,2.5a.44.44,0,0,0,.14.17c.07,0,.17,0,.32-.05l.9-.52a.44.44,0,0,0,.16-.19.51.51,0,0,0,.07-.26.39.39,0,0,0,0-.14Zm-.39-1.55a3.11,3.11,0,0,1-1,.85l-1.54.89V332l1.54-.89a1.62,1.62,0,0,1,1-.29c.24,0,.36.33.36.86A2.09,2.09,0,0,1,193.26,332.93Zm8.76-9.12c-.05-.05-.12,0-.2,0l-.8.46a.78.78,0,0,0-.32.33,1.24,1.24,0,0,0-.12.28l-1.73,5-1.72-3s-.06-.08-.13-.14-.18,0-.32,0l-.79.46a.53.53,0,0,0-.21.23.72.72,0,0,0-.08.32.36.36,0,0,0,0,.11l2.52,4.46v3.12a.27.27,0,0,0,.09.22.17.17,0,0,0,.2,0l.85-.49a.51.51,0,0,0,.2-.23.65.65,0,0,0,.09-.32v-3.12l2.52-7.36a.78.78,0,0,0,0-.14A.24.24,0,0,0,202,323.81ZM175.1,339.24l-5.27,3a.58.58,0,0,0-.2.23.76.76,0,0,0-.08.32v1a.27.27,0,0,0,.08.22.16.16,0,0,0,.2,0l1.92-1.11v7.77a.27.27,0,0,0,.08.22.17.17,0,0,0,.21,0l.86-.5a.51.51,0,0,0,.2-.23.62.62,0,0,0,.09-.32v-7.77l1.91-1.1a.51.51,0,0,0,.2-.23.65.65,0,0,0,.09-.32v-1a.27.27,0,0,0-.09-.23A.17.17,0,0,0,175.1,339.24Zm-7.79,5a.67.67,0,0,0-.14-.27c-.06-.05-.15,0-.26,0l-1.17.67a.65.65,0,0,0-.25.27,1.68,1.68,0,0,0-.15.45l-2.61,10.46s0,.07,0,.11a.27.27,0,0,0,.09.22.17.17,0,0,0,.2,0l.76-.44a.65.65,0,0,0,.3-.29,1.33,1.33,0,0,0,.12-.3l.46-1.84,3.36-1.94.45,1.31a.38.38,0,0,0,.12.17c.06,0,.16,0,.3-.06l.76-.44a.53.53,0,0,0,.21-.23.76.76,0,0,0,.08-.32.28.28,0,0,0,0-.09Zm-2.15,7,1.17-4.71,1.17,3.36Zm16.24-15.6-5.26,3a.46.46,0,0,0-.2.23.64.64,0,0,0-.09.31v1a.24.24,0,0,0,.09.22c.05,0,.12,0,.2,0l1.92-1.11v7.77c0,.11,0,.18.08.22a.15.15,0,0,0,.2,0l.86-.5a.53.53,0,0,0,.21-.23.72.72,0,0,0,.08-.32v-7.77l1.91-1.1a.59.59,0,0,0,.21-.23.79.79,0,0,0,.08-.32v-1a.3.3,0,0,0-.08-.23A.18.18,0,0,0,181.4,335.6Z" style="fill:#263238"></path><path d="M184.73,239a4.15,4.15,0,0,0-.27-1.25,1.64,1.64,0,0,0-1.7-1.14,3.38,3.38,0,0,0-1.48.52,6,6,0,0,0-1.49,1.2,7.89,7.89,0,0,0-1,1.49,7.15,7.15,0,0,0-.65,1.61,7.74,7.74,0,0,0-.27,1.56c0,.55,0,1.13,0,1.74s0,1.17,0,1.69a4.08,4.08,0,0,0,.27,1.25,1.75,1.75,0,0,0,.65.86,1.58,1.58,0,0,0,1,.26,3.45,3.45,0,0,0,1.49-.53,6.15,6.15,0,0,0,1.48-1.18,7.57,7.57,0,0,0,1.06-1.48,7.11,7.11,0,0,0,.64-1.61,7.74,7.74,0,0,0,.27-1.56c0-.55.05-1.13.05-1.74S184.76,239.49,184.73,239Zm-2.2,3.81c0,.26,0,.47,0,.6a3.6,3.6,0,0,1-.31,1.22,2.08,2.08,0,0,1-.92,1c-.45.26-.76.29-.93.1a1.45,1.45,0,0,1-.3-.87,5.32,5.32,0,0,1,0-.57c0-.26,0-.54,0-.83s0-.57,0-.84,0-.47,0-.61a3.59,3.59,0,0,1,.3-1.22,2.11,2.11,0,0,1,.93-1c.45-.26.75-.29.92-.1a1.45,1.45,0,0,1,.31.87c0,.12,0,.31,0,.58Zm-17.41,10.73-6.44,3.72,4.28-7.7a25.05,25.05,0,0,0,1.3-2.37,13.4,13.4,0,0,0,.74-1.88,8.59,8.59,0,0,0,.33-1.58c0-.49.07-1,.07-1.51a7,7,0,0,0-.34-2.23,3.52,3.52,0,0,0-1-1.63,2.65,2.65,0,0,0-1.76-.62,5.15,5.15,0,0,0-2.53.82,9.83,9.83,0,0,0-2.25,1.84,14,14,0,0,0-1.82,2.52,15.26,15.26,0,0,0-1.24,2.88,12,12,0,0,0-.53,2.93c0,.26,0,.43.17.51a.43.43,0,0,0,.46,0l1.83-1.06a1.26,1.26,0,0,0,.41-.44,1.87,1.87,0,0,0,.28-.76,9.66,9.66,0,0,1,.85-2.63,4.55,4.55,0,0,1,1.86-1.91c.9-.52,1.54-.59,1.93-.23a2.41,2.41,0,0,1,.58,1.82,7.3,7.3,0,0,1-.2,1.53,7,7,0,0,1-.89,2l-6.89,11.92a6.6,6.6,0,0,0-.39.77,2.57,2.57,0,0,0-.23,1v1.89a.56.56,0,0,0,.18.48.38.38,0,0,0,.44,0l10.83-6.25a1.15,1.15,0,0,0,.44-.5,1.56,1.56,0,0,0,.19-.69V254a.59.59,0,0,0-.19-.48A.37.37,0,0,0,165.12,253.51ZM183.29,226a.67.67,0,0,0,0-.17q0-.28-.15-.36a.4.4,0,0,0-.41.06l-1.39.8a1.57,1.57,0,0,0-.5.45,3.93,3.93,0,0,0-.33.62l-11.46,26.7c0,.08-.05.16-.07.23a1.49,1.49,0,0,0,0,.17.39.39,0,0,0,.15.36c.1.06.24,0,.41-.06l1.39-.81a1.44,1.44,0,0,0,.5-.44,3.66,3.66,0,0,0,.33-.63l11.45-26.7A.7.7,0,0,0,183.29,226Zm-12,17.16a6,6,0,0,0,1.48-1.19,7.22,7.22,0,0,0,1.06-1.47,7.87,7.87,0,0,0,.65-1.61,8.46,8.46,0,0,0,.26-1.56c0-.55.05-1.14.05-1.74s0-1.17-.05-1.69a4.47,4.47,0,0,0-.26-1.26,1.91,1.91,0,0,0-.65-.86,1.8,1.8,0,0,0-1.06-.27,3.42,3.42,0,0,0-1.48.52,5.81,5.81,0,0,0-1.48,1.2,7.45,7.45,0,0,0-1.71,3.1,8.19,8.19,0,0,0-.26,1.56c0,.55,0,1.13,0,1.74s0,1.17,0,1.69a4.48,4.48,0,0,0,.26,1.25,1.81,1.81,0,0,0,.65.86,1.67,1.67,0,0,0,1.06.26A3.6,3.6,0,0,0,171.24,243.18ZM170,237.51c0-.27,0-.48,0-.61a3.7,3.7,0,0,1,.3-1.23,2.09,2.09,0,0,1,.93-1c.45-.26.76-.3.93-.11a1.48,1.48,0,0,1,.3.88c0,.12,0,.31,0,.57v1.67c0,.27,0,.47,0,.6a3.64,3.64,0,0,1-.3,1.23,2.11,2.11,0,0,1-.93,1c-.45.26-.76.29-.93.1a1.46,1.46,0,0,1-.3-.88,5.59,5.59,0,0,1,0-.56c0-.27,0-.54,0-.83S170,237.78,170,237.51Z" style="fill:#455a64"></path></g></svg>